<svg xmlns="http://www.w3.org/2000/svg" xmlns:xlink="http://www.w3.org/1999/xlink" width="500" zoomAndPan="magnify" viewBox="0 0 375 374.999991" height="500" preserveAspectRatio="xMidYMid meet" version="1.0"><defs><g/></defs><g fill="#ff1b09" fill-opacity="1"><g transform="translate(37.500002, 224.687473)"><g><path d="M 50.578125 -43.3125 C 49.003906 -46.351562 46.816406 -48.644531 44.015625 -50.1875 C 41.210938 -51.738281 37.976562 -52.515625 34.3125 -52.515625 C 30.28125 -52.515625 26.6875 -51.609375 23.53125 -49.796875 C 20.382812 -47.984375 17.921875 -45.414062 16.140625 -42.09375 C 14.367188 -38.769531 13.484375 -34.921875 13.484375 -30.546875 C 13.484375 -26.171875 14.367188 -22.304688 16.140625 -18.953125 C 17.921875 -15.597656 20.382812 -13.015625 23.53125 -11.203125 C 26.6875 -9.390625 30.28125 -8.484375 34.3125 -8.484375 C 39.726562 -8.484375 44.128906 -10 47.515625 -13.03125 C 50.898438 -16.070312 52.972656 -20.1875 53.734375 -25.375 L 30.890625 -25.375 L 30.890625 -33.34375 L 64.40625 -33.34375 L 64.40625 -25.546875 C 63.769531 -20.828125 62.09375 -16.484375 59.375 -12.515625 C 56.664062 -8.546875 53.132812 -5.378906 48.78125 -3.015625 C 44.4375 -0.648438 39.613281 0.53125 34.3125 0.53125 C 28.59375 0.53125 23.367188 -0.796875 18.640625 -3.453125 C 13.910156 -6.109375 10.160156 -9.796875 7.390625 -14.515625 C 4.617188 -19.242188 3.234375 -24.585938 3.234375 -30.546875 C 3.234375 -36.492188 4.617188 -41.828125 7.390625 -46.546875 C 10.160156 -51.273438 13.921875 -54.96875 18.671875 -57.625 C 23.429688 -60.28125 28.644531 -61.609375 34.3125 -61.609375 C 40.78125 -61.609375 46.535156 -60.019531 51.578125 -56.84375 C 56.628906 -53.664062 60.296875 -49.15625 62.578125 -43.3125 Z M 50.578125 -43.3125 "/></g></g></g><g fill="#ff1b09" fill-opacity="1"><g transform="translate(105.14313, 224.687473)"><g><path d="M 3.234375 -24.328125 C 3.234375 -29.171875 4.238281 -33.457031 6.25 -37.1875 C 8.269531 -40.925781 11.015625 -43.832031 14.484375 -45.90625 C 17.953125 -47.976562 21.785156 -49.015625 25.984375 -49.015625 C 29.785156 -49.015625 33.097656 -48.269531 35.921875 -46.78125 C 38.753906 -45.289062 41.015625 -43.4375 42.703125 -41.21875 L 42.703125 -48.21875 L 52.765625 -48.21875 L 52.765625 0 L 42.703125 0 L 42.703125 -7.171875 C 41.015625 -4.898438 38.710938 -3.003906 35.796875 -1.484375 C 32.878906 0.0234375 29.550781 0.78125 25.8125 0.78125 C 21.675781 0.78125 17.882812 -0.28125 14.4375 -2.40625 C 11 -4.53125 8.269531 -7.503906 6.25 -11.328125 C 4.238281 -15.148438 3.234375 -19.484375 3.234375 -24.328125 Z M 42.703125 -24.15625 C 42.703125 -27.476562 42.015625 -30.363281 40.640625 -32.8125 C 39.273438 -35.269531 37.484375 -37.140625 35.265625 -38.421875 C 33.046875 -39.703125 30.65625 -40.34375 28.09375 -40.34375 C 25.519531 -40.34375 23.125 -39.710938 20.90625 -38.453125 C 18.695312 -37.203125 16.90625 -35.363281 15.53125 -32.9375 C 14.164062 -30.519531 13.484375 -27.648438 13.484375 -24.328125 C 13.484375 -21.003906 14.164062 -18.085938 15.53125 -15.578125 C 16.90625 -13.066406 18.710938 -11.15625 20.953125 -9.84375 C 23.203125 -8.53125 25.582031 -7.875 28.09375 -7.875 C 30.65625 -7.875 33.046875 -8.515625 35.265625 -9.796875 C 37.484375 -11.085938 39.273438 -12.972656 40.640625 -15.453125 C 42.015625 -17.929688 42.703125 -20.832031 42.703125 -24.15625 Z M 42.703125 -24.15625 "/></g></g></g><g fill="#ff1b09" fill-opacity="1"><g transform="translate(164.473059, 224.687473)"><g><path d="M 16.546875 -41.21875 C 18.003906 -43.664062 19.941406 -45.578125 22.359375 -46.953125 C 24.773438 -48.328125 27.648438 -49.015625 30.984375 -49.015625 L 30.984375 -38.6875 L 28.4375 -38.6875 C 24.53125 -38.6875 21.570312 -37.691406 19.5625 -35.703125 C 17.550781 -33.722656 16.546875 -30.28125 16.546875 -25.375 L 16.546875 0 L 6.5625 0 L 6.5625 -48.21875 L 16.546875 -48.21875 Z M 16.546875 -41.21875 "/></g></g></g><g fill="#ff1b09" fill-opacity="1"><g transform="translate(198.075852, 224.687473)"><g><path d="M 3.234375 -24.15625 C 3.234375 -29.113281 4.238281 -33.472656 6.25 -37.234375 C 8.269531 -40.992188 11.054688 -43.894531 14.609375 -45.9375 C 18.171875 -47.988281 22.257812 -49.015625 26.875 -49.015625 C 32.707031 -49.015625 37.53125 -47.625 41.34375 -44.84375 C 45.164062 -42.070312 47.75 -38.125 49.09375 -33 L 38.328125 -33 C 37.453125 -35.382812 36.050781 -37.25 34.125 -38.59375 C 32.207031 -39.9375 29.789062 -40.609375 26.875 -40.609375 C 22.78125 -40.609375 19.523438 -39.160156 17.109375 -36.265625 C 14.691406 -33.378906 13.484375 -29.34375 13.484375 -24.15625 C 13.484375 -18.957031 14.691406 -14.898438 17.109375 -11.984375 C 19.523438 -9.066406 22.78125 -7.609375 26.875 -7.609375 C 32.644531 -7.609375 36.460938 -10.148438 38.328125 -15.234375 L 49.09375 -15.234375 C 47.695312 -10.328125 45.070312 -6.429688 41.21875 -3.546875 C 37.363281 -0.660156 32.582031 0.78125 26.875 0.78125 C 22.257812 0.78125 18.171875 -0.25 14.609375 -2.3125 C 11.054688 -4.382812 8.269531 -7.300781 6.25 -11.0625 C 4.238281 -14.832031 3.234375 -19.195312 3.234375 -24.15625 Z M 3.234375 -24.15625 "/></g></g></g><g fill="#ff1b09" fill-opacity="1"><g transform="translate(250.580221, 224.687473)"><g><path d="M 31.5 -49.015625 C 35.175781 -49.015625 38.457031 -48.222656 41.34375 -46.640625 C 44.238281 -45.066406 46.515625 -42.734375 48.171875 -39.640625 C 49.835938 -36.546875 50.671875 -32.8125 50.671875 -28.4375 L 50.671875 0 L 40.78125 0 L 40.78125 -26.953125 C 40.78125 -31.273438 39.703125 -34.585938 37.546875 -36.890625 C 35.390625 -39.191406 32.441406 -40.34375 28.703125 -40.34375 C 24.972656 -40.34375 22.015625 -39.191406 19.828125 -36.890625 C 17.640625 -34.585938 16.546875 -31.273438 16.546875 -26.953125 L 16.546875 0 L 6.5625 0 L 6.5625 -64.765625 L 16.546875 -64.765625 L 16.546875 -42.625 C 18.234375 -44.664062 20.375 -46.238281 22.96875 -47.34375 C 25.570312 -48.457031 28.414062 -49.015625 31.5 -49.015625 Z M 31.5 -49.015625 "/></g></g></g><g fill="#ff1b09" fill-opacity="1"><g transform="translate(307.372442, 224.687473)"><g><path d="M 11.640625 -54.609375 C 9.828125 -54.609375 8.304688 -55.21875 7.078125 -56.4375 C 5.859375 -57.664062 5.25 -59.1875 5.25 -61 C 5.25 -62.8125 5.859375 -64.328125 7.078125 -65.546875 C 8.304688 -66.773438 9.828125 -67.390625 11.640625 -67.390625 C 13.390625 -67.390625 14.875 -66.773438 16.09375 -65.546875 C 17.320312 -64.328125 17.9375 -62.8125 17.9375 -61 C 17.9375 -59.1875 17.320312 -57.664062 16.09375 -56.4375 C 14.875 -55.21875 13.390625 -54.609375 11.640625 -54.609375 Z M 16.546875 -48.21875 L 16.546875 0 L 6.5625 0 L 6.5625 -48.21875 Z M 16.546875 -48.21875 "/></g></g></g><g fill="#ff1b09" fill-opacity="1"><g transform="translate(300.722298, 243.536809)"><g><path d="M 0.625 -5.0625 C 0.625 -6.039062 0.84375 -6.921875 1.28125 -7.703125 C 1.726562 -8.492188 2.335938 -9.109375 3.109375 -9.546875 C 3.878906 -9.992188 4.726562 -10.21875 5.65625 -10.21875 C 6.757812 -10.21875 7.722656 -9.953125 8.546875 -9.421875 C 9.367188 -8.890625 9.96875 -8.140625 10.34375 -7.171875 L 8.765625 -7.171875 C 8.484375 -7.773438 8.078125 -8.238281 7.546875 -8.5625 C 7.023438 -8.894531 6.394531 -9.0625 5.65625 -9.0625 C 4.957031 -9.0625 4.328125 -8.894531 3.765625 -8.5625 C 3.203125 -8.238281 2.757812 -7.773438 2.4375 -7.171875 C 2.125 -6.566406 1.96875 -5.863281 1.96875 -5.0625 C 1.96875 -4.257812 2.125 -3.554688 2.4375 -2.953125 C 2.757812 -2.347656 3.203125 -1.878906 3.765625 -1.546875 C 4.328125 -1.222656 4.957031 -1.0625 5.65625 -1.0625 C 6.394531 -1.0625 7.023438 -1.222656 7.546875 -1.546875 C 8.078125 -1.867188 8.484375 -2.332031 8.765625 -2.9375 L 10.34375 -2.9375 C 9.96875 -1.96875 9.367188 -1.21875 8.546875 -0.6875 C 7.722656 -0.164062 6.757812 0.09375 5.65625 0.09375 C 4.726562 0.09375 3.878906 -0.125 3.109375 -0.5625 C 2.335938 -1.007812 1.726562 -1.625 1.28125 -2.40625 C 0.84375 -3.1875 0.625 -4.070312 0.625 -5.0625 Z M 0.625 -5.0625 "/></g></g></g><g fill="#ff1b09" fill-opacity="1"><g transform="translate(311.903824, 243.536809)"><g><path d="M 11.359375 -10.015625 L 11.359375 0 L 10.03125 0 L 10.03125 -7.46875 L 6.703125 0 L 5.78125 0 L 2.4375 -7.484375 L 2.4375 0 L 1.109375 0 L 1.109375 -10.015625 L 2.53125 -10.015625 L 6.25 -1.734375 L 9.953125 -10.015625 Z M 11.359375 -10.015625 "/></g></g></g><g fill="#ff1b09" fill-opacity="1"><g transform="translate(324.374413, 243.536809)"><g><path d="M 4.3125 0.09375 C 3.644531 0.09375 3.046875 -0.0195312 2.515625 -0.25 C 1.992188 -0.488281 1.582031 -0.816406 1.28125 -1.234375 C 0.988281 -1.660156 0.835938 -2.144531 0.828125 -2.6875 L 2.234375 -2.6875 C 2.273438 -2.21875 2.46875 -1.820312 2.8125 -1.5 C 3.15625 -1.175781 3.65625 -1.015625 4.3125 -1.015625 C 4.945312 -1.015625 5.441406 -1.171875 5.796875 -1.484375 C 6.160156 -1.796875 6.34375 -2.195312 6.34375 -2.6875 C 6.34375 -3.082031 6.234375 -3.398438 6.015625 -3.640625 C 5.804688 -3.878906 5.539062 -4.0625 5.21875 -4.1875 C 4.90625 -4.3125 4.476562 -4.445312 3.9375 -4.59375 C 3.269531 -4.769531 2.734375 -4.941406 2.328125 -5.109375 C 1.929688 -5.285156 1.59375 -5.554688 1.3125 -5.921875 C 1.03125 -6.296875 0.890625 -6.800781 0.890625 -7.4375 C 0.890625 -7.976562 1.023438 -8.460938 1.296875 -8.890625 C 1.578125 -9.316406 1.972656 -9.644531 2.484375 -9.875 C 2.992188 -10.101562 3.578125 -10.21875 4.234375 -10.21875 C 5.179688 -10.21875 5.953125 -9.984375 6.546875 -9.515625 C 7.148438 -9.046875 7.492188 -8.421875 7.578125 -7.640625 L 6.125 -7.640625 C 6.070312 -8.023438 5.867188 -8.363281 5.515625 -8.65625 C 5.160156 -8.945312 4.6875 -9.09375 4.09375 -9.09375 C 3.550781 -9.09375 3.101562 -8.945312 2.75 -8.65625 C 2.40625 -8.375 2.234375 -7.976562 2.234375 -7.46875 C 2.234375 -7.101562 2.335938 -6.804688 2.546875 -6.578125 C 2.753906 -6.347656 3.007812 -6.171875 3.3125 -6.046875 C 3.613281 -5.921875 4.039062 -5.785156 4.59375 -5.640625 C 5.257812 -5.453125 5.796875 -5.269531 6.203125 -5.09375 C 6.609375 -4.914062 6.953125 -4.640625 7.234375 -4.265625 C 7.523438 -3.890625 7.671875 -3.382812 7.671875 -2.75 C 7.671875 -2.257812 7.539062 -1.796875 7.28125 -1.359375 C 7.019531 -0.921875 6.632812 -0.566406 6.125 -0.296875 C 5.613281 -0.0351562 5.007812 0.09375 4.3125 0.09375 Z M 4.3125 0.09375 "/></g></g></g></svg>